<?xml version="1.0" encoding="UTF-8"?>
<!--
  Open Graph / Twitter social card. 1200x630 = the canonical OG aspect
  ratio (1.91:1) used by Slack, Discord, iMessage, LinkedIn, Facebook,
  and (with a slight crop) Twitter's summary_large_image.
  Layout: brand mark left (300px square, drop-shadowed for elevation),
  wordmark + outcome-led tagline + product positioning on the right.
-->
<svg xmlns="http://www.w3.org/2000/svg" viewBox="0 0 1200 630" width="1200" height="630"
     role="img" aria-label="Clinical Copilot — Less time charting. More time with patients.">
  <title>Clinical Copilot — Less time charting. More time with patients.</title>

  <defs>
    <!-- Darker bg so the favicon plate (#0A2540) has somewhere to stand out from -->
    <linearGradient id="bg" x1="0%" y1="0%" x2="100%" y2="100%">
      <stop offset="0%" stop-color="#031628"/>
      <stop offset="100%" stop-color="#061B2F"/>
    </linearGradient>
    <radialGradient id="glow" cx="80%" cy="20%" r="55%">
      <stop offset="0%" stop-color="#1E5A8A" stop-opacity="0.20"/>
      <stop offset="100%" stop-color="#1E5A8A" stop-opacity="0"/>
    </radialGradient>
    <!-- Drop shadow lifts the plate off the dark bg so the favicon "floats" -->
    <filter id="plate-shadow" x="-30%" y="-30%" width="160%" height="160%">
      <feDropShadow dx="0" dy="6" stdDeviation="14" flood-color="#000000" flood-opacity="0.5"/>
    </filter>
  </defs>

  <rect width="1200" height="630" fill="url(#bg)"/>
  <rect width="1200" height="630" fill="url(#glow)"/>

  <!-- Brand mark, scaled 5x = 300x300, centred at y=315, drop-shadowed -->
  <g transform="translate(120 165) scale(5)" filter="url(#plate-shadow)">
    <rect width="60" height="60" rx="16" fill="#0A2540"/>
    <path d="M42.4689 43C40.5987 43 38.8603 42.6657 37.2538 41.9972C35.6713 41.3287 34.2806 40.3976 33.0817 39.2039C31.9068 38.0101 30.9837 36.6373 30.3123 35.0854C29.6649 33.5096 29.3412 31.8264 29.3412 30.0358C29.3412 28.2452 29.6529 26.562 30.2763 24.9862C30.9237 23.4105 31.8229 22.0257 32.9738 20.832C34.1487 19.6382 35.5394 18.7071 37.1459 18.0386C38.7524 17.3462 40.5267 17 42.4689 17C44.531 17 46.2933 17.3223 47.756 17.9669C49.2426 18.6116 50.5494 19.6024 51.6763 20.9394L48.1156 24.0193C46.605 22.4435 44.7228 21.6556 42.4689 21.6556C40.8624 21.6556 39.4597 22.0377 38.2608 22.8017C37.0859 23.5657 36.1748 24.5803 35.5274 25.8457C34.88 27.1111 34.5563 28.5078 34.5563 30.0358C34.5563 31.5638 34.88 32.9605 35.5274 34.2259C36.1748 35.4674 37.0979 36.4702 38.2968 37.2342C39.4957 37.9743 40.9224 38.3444 42.5768 38.3444C43.7997 38.3444 44.8787 38.1414 45.8138 37.7355C46.7489 37.3297 47.5881 36.7208 48.3314 35.9091L52 39.0248C51.0409 40.1708 49.7581 41.1258 48.1516 41.8898C46.5691 42.6299 44.6749 43 42.4689 43Z" fill="white"/>
    <path d="M21.1277 43C19.2575 43 17.5191 42.6657 15.9126 41.9972C14.3301 41.3287 12.9394 40.3976 11.7405 39.2039C10.5656 38.0101 9.64246 36.6373 8.97109 35.0854C8.3237 33.5096 8 31.8264 8 30.0358C8 28.2452 8.31171 26.562 8.93513 24.9862C9.58252 23.4105 10.4817 22.0257 11.6326 20.832C12.8075 19.6382 14.1982 18.7071 15.8047 18.0386C17.4112 17.3462 19.1855 17 21.1277 17C23.1898 17 24.9521 17.3223 26.4148 17.9669C27.9014 18.6116 29.2082 19.6024 30.3351 20.9394L26.7744 24.0193C25.2639 22.4435 23.3816 21.6556 21.1277 21.6556C19.5212 21.6556 18.1185 22.0377 16.9197 22.8017C15.7448 23.5657 14.8336 24.5803 14.1862 25.8457C13.5388 27.1111 13.2151 28.5078 13.2151 30.0358C13.2151 31.5638 13.5388 32.9605 14.1862 34.2259C14.8336 35.4674 15.7567 36.4702 16.9556 37.2342C18.1545 37.9743 19.5812 38.3444 21.2356 38.3444C22.4585 38.3444 23.5375 38.1414 24.4726 37.7355C25.4077 37.3297 26.2469 36.7208 26.9902 35.9091L30.6588 39.0248C29.6997 40.1708 28.4169 41.1258 26.8104 41.8898C25.2279 42.6299 23.3337 43 21.1277 43Z" fill="#4EA3FF"/>
  </g>

  <!-- Right column: wordmark + outcome-led tagline + production positioning.
       Cal Sans is single-weight (SemiBold) — visual hierarchy comes from
       font-size, not weight. The Helvetica chain is fallback only. -->
  <g font-family="Cal Sans, Helvetica Neue, Helvetica, Arial, sans-serif">
    <text x="475" y="290" font-size="84" fill="#FFFFFF">
      Clinical Copilot
    </text>
    <text x="475" y="345" font-size="30" fill="#B8D2E8">
      Less time charting. More time with patients.
    </text>

    <line x1="475" y1="425" x2="1060" y2="425" stroke="#1E5A8A" stroke-width="1" opacity="0.55"/>

    <text x="475" y="465" font-size="19" letter-spacing="3" fill="#7FB0D4">
      BUILT FOR CLINICIANS  ·  POINT OF CARE
    </text>
  </g>
</svg>
